<svg width="8" height="7" viewBox="0 0 8 7" fill="none" xmlns="http://www.w3.org/2000/svg">
<path d="M7.58863 3.0684L4.57043 0.180548C4.40637 0.0243151 4.16766 -0.0363078 3.94423 0.0215158C3.72079 0.0793394 3.54657 0.246825 3.48718 0.460882C3.4278 0.674938 3.49228 0.903047 3.65634 1.05928L5.56643 2.88275H0.646758C0.289564 2.88275 0 3.15981 0 3.50158C0 3.84334 0.289564 4.1204 0.646758 4.1204H5.56643L3.65634 5.94387C3.47161 6.12084 3.41639 6.38682 3.51639 6.61792C3.6164 6.84901 3.85197 6.99978 4.11338 7C4.28695 6.99754 4.45198 6.92752 4.57043 6.8061L7.58863 3.91825C7.84083 3.67665 7.84083 3.28525 7.58863 3.04365V3.0684Z" fill="#D97830"/>
</svg>
