<svg width="8" height="7" viewBox="0 0 8 7" fill="none" xmlns="http://www.w3.org/2000/svg">
<path d="M7.58851 3.06843L4.5703 0.180579C4.40625 0.0243456 4.16754 -0.0362773 3.9441 0.0215463C3.72067 0.0793699 3.54644 0.246855 3.48706 0.460912C3.42768 0.674969 3.49216 0.903077 3.65622 1.05931L5.56631 2.88278H0.646636C0.289441 2.88278 -0.00012207 3.15984 -0.00012207 3.50161C-0.00012207 3.84337 0.289441 4.12043 0.646636 4.12043H5.56631L3.65622 5.9439C3.47149 6.12088 3.41626 6.38685 3.51627 6.61795C3.61628 6.84904 3.85185 6.99981 4.11326 7.00003C4.28683 6.99757 4.45186 6.92755 4.5703 6.80613L7.58851 3.91828C7.8407 3.67668 7.8407 3.28528 7.58851 3.04368V3.06843Z" fill="white"/>
</svg>
