<svg width="20" height="18" viewBox="0 0 20 18" fill="none" xmlns="http://www.w3.org/2000/svg">
<path d="M18.58 7.94008L11.58 0.940082C11.1995 0.56138 10.6459 0.414433 10.1277 0.554595C9.60945 0.694756 9.20538 1.10073 9.06766 1.61959C8.92994 2.13846 9.07949 2.69138 9.45998 3.07008L13.89 7.49008H2.47998C1.65155 7.49008 0.97998 8.16165 0.97998 8.99008C0.97998 9.81851 1.65155 10.4901 2.47998 10.4901H13.89L9.45998 14.9101C9.03154 15.3391 8.90346 15.9838 9.13541 16.5439C9.36735 17.1041 9.9137 17.4695 10.52 17.4701C10.9225 17.4641 11.3053 17.2944 11.58 17.0001L18.58 10.0001C19.1649 9.41445 19.1649 8.46572 18.58 7.88008V7.94008Z" fill="white"/>
</svg>
