<svg width="20" height="22" viewBox="0 0 20 22" fill="none" xmlns="http://www.w3.org/2000/svg">
<path fill-rule="evenodd" clip-rule="evenodd" d="M14.9 2.57H15C17.7614 2.57 20 4.80858 20 7.57V16.57C20 19.3314 17.7614 21.57 15 21.57H5C3.67392 21.57 2.40215 21.0432 1.46447 20.1055C0.526784 19.1679 0 17.8961 0 16.57V7.57C0 4.80858 2.23858 2.57 5 2.57H5.1V0.75C5.1 0.335786 5.43579 0 5.85 0C6.26421 0 6.6 0.335786 6.6 0.75V2.57H13.4V0.75C13.4 0.335786 13.7358 0 14.15 0C14.5642 0 14.9 0.335786 14.9 0.75V2.57ZM5.5 8.66H14.5C14.9142 8.66 15.25 8.32421 15.25 7.91C15.25 7.49579 14.9142 7.16 14.5 7.16H5.5C5.08579 7.16 4.75 7.49579 4.75 7.91C4.75 8.32421 5.08579 8.66 5.5 8.66Z" fill="#16A34A"/>
</svg>
