<svg width="22" height="24" viewBox="0 0 22 24" fill="none" xmlns="http://www.w3.org/2000/svg">
<path d="M15.5 8.16H6.5C6.08579 8.16 5.75 8.49579 5.75 8.91C5.75 9.32421 6.08579 9.66 6.5 9.66H15.5C15.9142 9.66 16.25 9.32421 16.25 8.91C16.25 8.49579 15.9142 8.16 15.5 8.16Z" fill="#16A34A"/>
<path fill-rule="evenodd" clip-rule="evenodd" d="M15.89 3.57H16C18.7614 3.57 21 5.80858 21 8.57V17.57C21 20.3314 18.7614 22.57 16 22.57H6C4.67392 22.57 3.40215 22.0432 2.46447 21.1055C1.52678 20.1679 1 18.8961 1 17.57V8.57C1 5.80858 3.23858 3.57 6 3.57H6.09V1.75C6.09 1.33579 6.42579 1 6.84 1C7.25421 1 7.59 1.33579 7.59 1.75V3.57H14.39V1.75C14.39 1.33579 14.7258 1 15.14 1C15.5542 1 15.89 1.33579 15.89 1.75V3.57ZM16 21.07C17.933 21.07 19.5 19.503 19.5 17.57V8.57C19.5 6.637 17.933 5.07 16 5.07H6C4.067 5.07 2.5 6.637 2.5 8.57V17.57C2.5 19.503 4.067 21.07 6 21.07H16Z" fill="#16A34A"/>
<path d="M15.5 8.16H6.5C6.08579 8.16 5.75 8.49579 5.75 8.91C5.75 9.32421 6.08579 9.66 6.5 9.66H15.5C15.9142 9.66 16.25 9.32421 16.25 8.91C16.25 8.49579 15.9142 8.16 15.5 8.16Z" stroke="#16A34A"/>
<path fill-rule="evenodd" clip-rule="evenodd" d="M15.89 3.57H16C18.7614 3.57 21 5.80858 21 8.57V17.57C21 20.3314 18.7614 22.57 16 22.57H6C4.67392 22.57 3.40215 22.0432 2.46447 21.1055C1.52678 20.1679 1 18.8961 1 17.57V8.57C1 5.80858 3.23858 3.57 6 3.57H6.09V1.75C6.09 1.33579 6.42579 1 6.84 1C7.25421 1 7.59 1.33579 7.59 1.75V3.57H14.39V1.75C14.39 1.33579 14.7258 1 15.14 1C15.5542 1 15.89 1.33579 15.89 1.75V3.57ZM16 21.07C17.933 21.07 19.5 19.503 19.5 17.57V8.57C19.5 6.637 17.933 5.07 16 5.07H6C4.067 5.07 2.5 6.637 2.5 8.57V17.57C2.5 19.503 4.067 21.07 6 21.07H16Z" stroke="#16A34A"/>
</svg>
