<svg width="8" height="8" viewBox="0 0 8 8" fill="none" xmlns="http://www.w3.org/2000/svg">
<g clip-path="url(#clip0_646_382)">
<path d="M0 0.250231C0 0.183866 0.0263392 0.120219 0.0732233 0.0732911C0.120107 0.0263636 0.183696 0 0.25 0L7.75 0C7.8163 0 7.87989 0.0263636 7.92678 0.0732911C7.97366 0.120219 8 0.183866 8 0.250231V1.75162C8 1.81799 7.97366 1.88163 7.92678 1.92856C7.87989 1.97549 7.8163 2.00185 7.75 2.00185H7V3.00278H7.75C7.8163 3.00278 7.87989 3.02914 7.92678 3.07607C7.97366 3.123 8 3.18664 8 3.25301V4.7544C8 4.82076 7.97366 4.88441 7.92678 4.93134C7.87989 4.97827 7.8163 5.00463 7.75 5.00463H7V6.00556H7.75C7.8163 6.00556 7.87989 6.03192 7.92678 6.07885C7.97366 6.12577 8 6.18942 8 6.25579V7.75718C8 7.82354 7.97366 7.88719 7.92678 7.93412C7.87989 7.98104 7.8163 8.00741 7.75 8.00741H0.25C0.183696 8.00741 0.120107 7.98104 0.0732233 7.93412C0.0263392 7.88719 0 7.82354 0 7.75718V6.25579C0 6.18942 0.0263392 6.12577 0.0732233 6.07885C0.120107 6.03192 0.183696 6.00556 0.25 6.00556H1V5.00463H0.25C0.183696 5.00463 0.120107 4.97827 0.0732233 4.93134C0.0263392 4.88441 0 4.82076 0 4.7544V3.25301C0 3.18664 0.0263392 3.123 0.0732233 3.07607C0.120107 3.02914 0.183696 3.00278 0.25 3.00278H1V2.00185H0.25C0.183696 2.00185 0.120107 1.97549 0.0732233 1.92856C0.0263392 1.88163 0 1.81799 0 1.75162V0.250231ZM1.5 2.00185V3.00278H3.75V2.00185H1.5ZM4.25 2.00185V3.00278H6.5V2.00185H4.25ZM1.5 5.00463V6.00556H3.75V5.00463H1.5ZM4.25 5.00463V6.00556H6.5V5.00463H4.25ZM0.5 0.500463V1.50139H2.25V0.500463H0.5ZM2.75 0.500463V1.50139H5.25V0.500463H2.75ZM5.75 0.500463V1.50139H7.5V0.500463H5.75ZM0.5 3.50324V4.50417H2.25V3.50324H0.5ZM2.75 3.50324V4.50417H5.25V3.50324H2.75ZM5.75 3.50324V4.50417H7.5V3.50324H5.75ZM0.5 6.50602V7.50694H2.25V6.50602H0.5ZM2.75 6.50602V7.50694H5.25V6.50602H2.75ZM5.75 6.50602V7.50694H7.5V6.50602H5.75Z" fill="#D97830"/>
</g>
<defs>
<clipPath id="clip0_646_382">
<rect width="8" height="8.00741" fill="white"/>
</clipPath>
</defs>
</svg>
