<svg width="8" height="8" viewBox="0 0 8 8" fill="none" xmlns="http://www.w3.org/2000/svg">
<path d="M0 0.5C0 0.367392 0.0526784 0.240215 0.146447 0.146447C0.240215 0.0526784 0.367392 0 0.5 0L7.5 0C7.63261 0 7.75979 0.0526784 7.85355 0.146447C7.94732 0.240215 8 0.367392 8 0.5V7.5C8 7.63261 7.94732 7.75979 7.85355 7.85355C7.75979 7.94732 7.63261 8 7.5 8H0.5C0.367392 8 0.240215 7.94732 0.146447 7.85355C0.0526784 7.75979 0 7.63261 0 7.5V0.5ZM2 0.5V3.5H6V0.5H2ZM6 4.5H2V7.5H6V4.5ZM0.5 0.5V1.5H1.5V0.5H0.5ZM1.5 2H0.5V3H1.5V2ZM0.5 3.5V4.5H1.5V3.5H0.5ZM1.5 5H0.5V6H1.5V5ZM0.5 6.5V7.5H1.5V6.5H0.5ZM7.5 0.5H6.5V1.5H7.5V0.5ZM6.5 2V3H7.5V2H6.5ZM7.5 3.5H6.5V4.5H7.5V3.5ZM6.5 5V6H7.5V5H6.5ZM7.5 6.5H6.5V7.5H7.5V6.5Z" fill="#D97830"/>
</svg>
