<svg width="11" height="9" viewBox="0 0 11 9" fill="none" xmlns="http://www.w3.org/2000/svg">
<path d="M8.04321 3.82057C7.92639 3.82729 7.84985 3.78969 7.84045 3.78298L7.26038 4.15358C7.38794 4.35365 7.65112 4.48927 7.94653 4.50673C7.96936 4.50807 7.99219 4.50807 8.01501 4.50807C8.40308 4.50807 8.78442 4.31203 9.07312 3.96291C9.56592 3.36403 9.91235 2.7289 9.92712 2.70204L10.0829 2.41335L9.80225 2.24416C8.24463 1.30824 7.35437 1.7527 7.04419 1.98769C6.64404 2.29115 6.46143 2.78798 6.56213 3.27272C6.24255 3.47682 5.92432 3.73464 5.67053 4.04884C5.52417 3.70644 5.2959 3.39894 5.03003 3.1277C5.0542 3.06459 5.07031 3.00282 5.08105 2.95717C5.08643 2.933 5.0918 2.91017 5.09851 2.89003C5.27441 2.30055 5.03271 1.61305 4.49695 1.18068C4.1156 0.873186 3.03198 0.266252 1.20984 1.27065L0.974854 1.39955L1.04199 1.65737C1.05542 1.70973 1.38037 2.93434 2.02624 3.65138C2.30554 3.96156 2.65601 4.13612 3.04138 4.15492C3.06555 4.15627 3.08972 4.15627 3.11255 4.15627C3.54492 4.15627 3.91553 3.96425 4.06592 3.82729L3.604 3.31838C3.59863 3.3224 3.02124 3.72792 2.53784 3.19081C2.16321 2.7759 1.90808 2.10988 1.78723 1.74465C3.08838 1.11757 3.80811 1.50832 4.06458 1.7151C4.36536 1.95815 4.5144 2.31667 4.45264 2.62819C3.71277 2.08034 2.94202 1.77419 2.88025 1.75136L2.63184 2.39186C3.33411 2.6631 5.15625 3.63527 5.15625 4.84377V5.9247C4.89441 5.99318 4.6554 6.13417 4.47546 6.33693C4.31433 6.25905 4.13708 6.21877 3.95312 6.21877C3.46167 6.21877 3.0387 6.51418 2.85205 6.93849C2.76208 6.91701 2.67078 6.90626 2.57812 6.90626C1.91479 6.90626 1.375 7.44606 1.375 8.10939V8.28126H2.0625V8.10939C2.0625 7.82472 2.29346 7.59376 2.57812 7.59376C2.71643 7.59376 2.82251 7.6515 2.88696 7.69984L3.4375 7.42592V7.42055C3.43884 7.13722 3.6698 6.90626 3.95312 6.90626C4.09143 6.90626 4.22168 6.96132 4.3197 7.06068L4.87695 6.964C4.98975 6.71962 5.23413 6.56251 5.5 6.56251C5.74976 6.56251 5.98071 6.70216 6.10156 6.92775L6.64404 7.011C6.71252 6.94386 6.80383 6.90626 6.89917 6.90626C7.10059 6.90626 7.26575 7.07143 7.26575 7.27284C7.26575 7.31313 7.25769 7.35341 7.24158 7.39772L7.79346 7.77235C7.88477 7.69044 8.03784 7.59376 8.25 7.59376C8.62866 7.59376 8.9375 7.9026 8.9375 8.28126H9.625C9.625 7.5226 9.00867 6.90626 8.25 6.90626C8.13184 6.90626 8.01501 6.92238 7.90356 6.95192C7.7666 6.52626 7.3678 6.21877 6.89917 6.21877C6.75549 6.21877 6.61853 6.24696 6.48962 6.30067C6.31372 6.11671 6.08948 5.98915 5.84375 5.9247V5.53127H5.84509V5.41847C5.84509 3.9911 8.09021 3.30763 8.11304 3.30092L7.91968 2.64162C7.88477 2.65102 7.60413 2.73695 7.23486 2.90614C7.26172 2.76381 7.33557 2.63088 7.46045 2.53688C7.82434 2.26027 8.44202 2.31264 9.14966 2.66982C9.01135 2.8954 8.79651 3.21901 8.54272 3.52651C8.35339 3.75612 8.16675 3.81386 8.04321 3.82057ZM4.63525 2.7195L4.63928 2.77321C4.62183 2.75978 4.60303 2.74635 4.58557 2.73158C4.60168 2.72756 4.61646 2.72084 4.63525 2.7195Z" fill="#D97830"/>
</svg>
