<svg width="11" height="11" viewBox="0 0 11 11" fill="none" xmlns="http://www.w3.org/2000/svg">
<path d="M1.71876 5.5C1.71865 4.8362 1.89329 4.18407 2.22513 3.60917C2.55696 3.03426 3.03429 2.55684 3.60913 2.2249C4.18397 1.89295 4.83606 1.71818 5.49986 1.71816C6.16366 1.71813 6.81577 1.89285 7.39063 2.22475C7.46954 2.26962 7.56299 2.28145 7.6506 2.25766C7.7382 2.23388 7.81284 2.17641 7.85823 2.0978C7.90361 2.01919 7.91607 1.92582 7.89286 1.83806C7.86966 1.7503 7.81269 1.67528 7.73438 1.62938C6.88247 1.13753 5.89208 0.940515 4.91679 1.0689C3.9415 1.19728 3.03583 1.64388 2.34022 2.33944C1.64462 3.035 1.19796 3.94065 1.06952 4.91592C0.94107 5.8912 1.13802 6.88161 1.62981 7.73355C2.12161 8.58549 2.88077 9.25136 3.78956 9.62788C4.69835 10.0044 5.70598 10.0705 6.65619 9.81602C7.60639 9.56151 8.44607 9.00058 9.045 8.22023C9.64392 7.43987 9.96863 6.4837 9.96876 5.5C9.96876 5.40883 9.93254 5.3214 9.86807 5.25693C9.80361 5.19247 9.71618 5.15625 9.62501 5.15625C9.53384 5.15625 9.4464 5.19247 9.38194 5.25693C9.31747 5.3214 9.28126 5.40883 9.28126 5.5C9.28126 6.50285 8.88288 7.46463 8.17375 8.17375C7.46463 8.88287 6.50286 9.28125 5.50001 9.28125C4.49716 9.28125 3.53538 8.88287 2.82626 8.17375C2.11714 7.46463 1.71876 6.50285 1.71876 5.5Z" fill="white"/>
<path d="M10.5559 2.30587C10.5878 2.27391 10.6132 2.23597 10.6305 2.19421C10.6478 2.15245 10.6567 2.1077 10.6567 2.0625C10.6567 2.0173 10.6478 1.97254 10.6305 1.93079C10.6132 1.88903 10.5878 1.85108 10.5559 1.81912C10.5239 1.78716 10.486 1.76181 10.4442 1.74451C10.4025 1.72722 10.3577 1.71832 10.3125 1.71832C10.2673 1.71832 10.2226 1.72722 10.1808 1.74451C10.139 1.76181 10.1011 1.78716 10.0691 1.81912L5.50001 6.38894L3.68088 4.56912C3.64892 4.53716 3.61098 4.51181 3.56922 4.49451C3.52746 4.47722 3.48271 4.46831 3.43751 4.46831C3.39231 4.46831 3.34755 4.47722 3.30579 4.49451C3.26404 4.51181 3.22609 4.53716 3.19413 4.56912C3.16217 4.60108 3.13682 4.63903 3.11952 4.68079C3.10223 4.72254 3.09332 4.7673 3.09332 4.8125C3.09332 4.8577 3.10223 4.90245 3.11952 4.94421C3.13682 4.98597 3.16217 5.02391 3.19413 5.05587L5.25663 7.11837C5.28856 7.15039 5.3265 7.17578 5.36826 7.19311C5.41002 7.21044 5.45479 7.21936 5.50001 7.21936C5.54522 7.21936 5.58999 7.21044 5.63175 7.19311C5.67352 7.17578 5.71145 7.15039 5.74338 7.11837L10.5559 2.30587Z" fill="white"/>
</svg>
