<svg width="44" height="44" viewBox="0 0 44 44" fill="none" xmlns="http://www.w3.org/2000/svg">
<g clip-path="url(#clip0_1077_2)">
<path d="M16.5 25.6667C16.5 28.7045 21.4243 31.1667 27.5 31.1667C33.5757 31.1667 38.5 28.7045 38.5 25.6667C38.5 22.6289 33.5757 20.1667 27.5 20.1667C21.4243 20.1667 16.5 22.6289 16.5 25.6667Z" stroke="#16A34A" stroke-width="3.66667" stroke-linecap="round" stroke-linejoin="round"/>
<path d="M16.5 25.6667V33C16.5 36.036 21.4243 38.5 27.5 38.5C33.5757 38.5 38.5 36.036 38.5 33V25.6667" stroke="#16A34A" stroke-width="3.66667" stroke-linecap="round" stroke-linejoin="round"/>
<path d="M5.5 11C5.5 12.9653 7.59733 14.7803 11 15.763C14.4027 16.7457 18.5973 16.7457 22 15.763C25.4027 14.7803 27.5 12.9653 27.5 11C27.5 9.03467 25.4027 7.21967 22 6.237C18.5973 5.25433 14.4027 5.25433 11 6.237C7.59733 7.21967 5.5 9.03467 5.5 11Z" stroke="#16A34A" stroke-width="3.66667" stroke-linecap="round" stroke-linejoin="round"/>
<path d="M5.5 11V29.3333C5.5 30.9613 6.91533 31.9917 9.16667 33" stroke="#16A34A" stroke-width="3.66667" stroke-linecap="round" stroke-linejoin="round"/>
<path d="M5.5 20.1667C5.5 21.7947 6.91533 22.825 9.16667 23.8334" stroke="#16A34A" stroke-width="3.66667" stroke-linecap="round" stroke-linejoin="round"/>
</g>
<defs>
<clipPath id="clip0_1077_2">
<rect width="44" height="44" fill="white"/>
</clipPath>
</defs>
</svg>
