<svg width="11" height="8" viewBox="0 0 11 8" fill="none" xmlns="http://www.w3.org/2000/svg">
<path fill-rule="evenodd" clip-rule="evenodd" d="M5.99206 2.69379C6.49338 2.68116 6.94118 2.36196 7.13668 1.8779C7.17841 1.89634 7.22304 1.90651 7.26831 1.90789H9.55754C9.7946 1.90789 9.98677 1.70645 9.98677 1.45795C9.98677 1.20946 9.7946 1.00801 9.55754 1.00801H7.29692C7.27223 1.00462 7.24722 1.00462 7.22252 1.00801C7.0586 0.332865 6.42782 -0.0974011 5.77255 0.0189576C5.11728 0.135316 4.65687 0.759346 4.71422 1.45342C4.77157 2.14749 5.32746 2.67926 5.99206 2.67579V2.69379ZM5.99206 0.924025C6.2228 0.924025 6.40985 1.1201 6.40985 1.36197C6.40985 1.60383 6.2228 1.79991 5.99206 1.79991C5.76133 1.79991 5.57428 1.60383 5.57428 1.36197C5.57428 1.1201 5.76133 0.924025 5.99206 0.924025Z" fill="#D97830"/>
<path d="M0.429231 1.00801H3.86308C4.10014 1.00801 4.29231 1.20946 4.29231 1.45795C4.29231 1.70645 4.10014 1.90789 3.86308 1.90789H0.429231C0.192173 1.90789 0 1.70645 0 1.45795C0 1.20946 0.192173 1.00801 0.429231 1.00801Z" fill="#D97830"/>
<path fill-rule="evenodd" clip-rule="evenodd" d="M1.52234 5.80737C1.7016 5.27587 2.18067 4.92026 2.71846 4.91949V4.90749C3.36564 4.90662 3.91098 5.41367 3.98741 6.08732C4.06383 6.76098 3.64714 7.38795 3.01782 7.54621C2.38851 7.70448 1.7458 7.34392 1.52234 6.70725H0.429231C0.192173 6.70725 0 6.5058 0 6.25731C0 6.00881 0.192173 5.80737 0.429231 5.80737H1.52234ZM2.30137 6.28887C2.3053 6.5275 2.49078 6.71889 2.71846 6.71925V6.69525C2.9492 6.69525 3.13625 6.49918 3.13625 6.25731C3.12377 6.019 2.93156 5.83505 2.70403 5.84365C2.4765 5.85225 2.29744 6.05024 2.30137 6.28887Z" fill="#D97830"/>
<path d="M5.00769 5.80737H9.58616C9.82321 5.80737 10.0154 6.00881 10.0154 6.25731C10.0154 6.5058 9.82321 6.70725 9.58616 6.70725H5.00769C4.77064 6.70725 4.57846 6.5058 4.57846 6.25731C4.57846 6.00881 4.77064 5.80737 5.00769 5.80737Z" fill="#D97830"/>
</svg>
