<svg width="800" height="800" viewBox="0 0 800 800" fill="none" xmlns="http://www.w3.org/2000/svg">
<g clip-path="url(#clip0_1058_120)">
<mask id="mask0_1058_120" style="mask-type:luminance" maskUnits="userSpaceOnUse" x="0" y="0" width="800" height="800">
<path d="M800 0H0V800H800V0Z" fill="white"/>
</mask>
<g mask="url(#mask0_1058_120)">
<path d="M400 0C179.448 0 0 179.441 0 400C0 620.559 179.448 800 400 800C620.559 800 800 620.559 800 400C800 179.441 620.559 0 400 0ZM418.749 113.975L549.81 70C594.787 90.4889 634.883 119.829 667.784 155.892L667.537 295.34L551.251 323.498L418.749 227.225V113.975ZM249.314 70.3937L381.251 114.051V227.225L248.749 323.498L133.27 295.352L133.01 163.759C133.01 161.333 132.279 159.086 131.073 157.168C163.968 120.756 204.178 91.1111 249.314 70.3937ZM84.1587 577.632C60.6857 536.063 45.1492 489.467 39.7079 439.848L121.765 331.111L237.34 359.283L287.867 514.781L215.511 620.921L84.1587 577.632ZM469.625 755.937C447.079 760.343 423.829 762.622 400.006 762.622C373.625 762.629 347.911 759.625 323.124 754.241L245.708 643.549L318.254 537.498H481.625L547.365 643.321L469.625 755.937ZM577.733 620.806L512.114 514.832L562.66 359.276L679.041 331.098L760.502 438.222C755.321 487.454 740.229 533.752 717.289 575.137L577.733 620.806Z" fill="#16A34A"/>
</g>
</g>
<defs>
<clipPath id="clip0_1058_120">
<rect width="800" height="800" fill="white"/>
</clipPath>
</defs>
</svg>
