<svg width="21" height="20" viewBox="0 0 21 20" fill="none" xmlns="http://www.w3.org/2000/svg">
<path fill-rule="evenodd" clip-rule="evenodd" d="M18.4387 1.59091L20.0987 6.20091C20.4599 7.09355 20.3706 8.10531 19.8587 8.92091C19.4231 9.53903 18.7929 9.99325 18.0687 10.2109V17.0109C18.0529 17.7748 17.7343 18.5011 17.1829 19.03C16.6315 19.5589 15.8926 19.847 15.1287 19.8309H5.46869C4.69534 19.8606 3.9424 19.5788 3.3785 19.0488C2.81461 18.5187 2.48687 17.7846 2.46869 17.0109V10.3109C1.76465 10.1497 1.1305 9.76779 0.658691 9.22091C-0.0197186 8.37407 -0.187971 7.2269 0.218691 6.22091L1.86869 1.60091C2.25783 0.615623 3.21961 -0.0229038 4.27869 0.000911419H16.0287C17.0861 -0.0274337 18.0487 0.607626 18.4387 1.59091ZM11.5101 18.2009H11.5187V18.2309C11.5157 18.221 11.5128 18.211 11.5101 18.2009ZM11.5101 18.2009H8.96869C8.97821 18.1245 8.97821 18.0473 8.96869 17.9709V15.8609C8.98611 15.5436 9.13294 15.2474 9.37487 15.0413C9.61681 14.8353 9.93267 14.7376 10.2487 14.7709C10.8771 14.7248 11.4256 15.193 11.4787 15.8209V17.9609C11.4787 18.042 11.4893 18.1227 11.5101 18.2009ZM15.0787 18.2009H12.9687C12.9782 18.1245 12.9782 18.0473 12.9687 17.9709V15.8609C12.9144 14.3884 11.6815 13.2359 10.2087 13.2809C8.73202 13.2303 7.49296 14.3844 7.43869 15.8609V18.0009C7.42917 18.0773 7.42917 18.1545 7.43869 18.2309H5.41869C4.68208 18.2649 4.05643 17.6973 4.01869 16.9609V10.2909C5.35106 10.0898 6.42113 9.08733 6.70869 7.77091C7.0609 9.36801 8.52676 10.4685 10.1587 10.3609C11.7612 10.4281 13.1812 9.3367 13.5287 7.77091C13.8101 9.17022 14.969 10.2238 16.3887 10.3709V17.0109C16.3275 17.6924 15.7628 18.2183 15.0787 18.2309V18.2009ZM17.0787 8.61091C17.6088 8.59699 18.1 8.32909 18.3987 7.89091V7.92091C18.6062 7.57132 18.6322 7.14309 18.4687 6.77091L16.8187 2.22091C16.6723 1.92333 16.3593 1.74504 16.0287 1.77091H4.27869C3.96059 1.74183 3.65511 1.9024 3.49869 2.18091L1.84869 6.77091C1.63425 7.19533 1.67276 7.70364 1.94869 8.09091C2.19793 8.39717 2.55657 8.59443 2.94869 8.64091C3.07493 8.65564 3.20245 8.65564 3.32869 8.64091C4.09815 8.68294 4.79309 8.18359 4.99869 7.44091C5.15127 6.5956 5.87986 5.97588 6.73869 5.96091C7.60678 5.9605 8.34552 6.5931 8.47869 7.45091C8.68224 8.19816 9.38623 8.69682 10.1587 8.64091C10.9375 8.69282 11.6413 8.17862 11.8287 7.42091C11.9733 6.56955 12.7052 5.94283 13.5687 5.93091C14.4335 5.92972 15.1711 6.55707 15.3087 7.41091C15.5124 8.16369 16.2208 8.6667 16.9987 8.61091H17.0787Z" fill="#FFF"/>
</svg>
