<svg width="12" height="13" viewBox="0 0 12 13" fill="none" xmlns="http://www.w3.org/2000/svg">
<path d="M2.71488 5.54244L1.34312 6.9142C0.171549 8.08577 0.171549 9.98527 1.34312 11.1568C2.51469 12.3284 4.41419 12.3284 5.58576 11.1568L7.41419 9.32842C8.58576 8.15684 8.58576 6.25735 7.41419 5.08577C7.16625 4.83784 6.88572 4.64237 6.58638 4.49938L5.99998 5.08578C5.939 5.14675 5.88754 5.21365 5.8456 5.28461C6.16104 5.37499 6.45862 5.54442 6.70708 5.79288C7.48813 6.57393 7.48813 7.84026 6.70708 8.62131L4.87866 10.4497C4.09761 11.2308 2.83128 11.2308 2.05023 10.4497C1.26918 9.66869 1.26918 8.40236 2.05023 7.62131L2.84283 6.8287C2.73064 6.40858 2.68799 5.97375 2.71488 5.54244Z" fill="#16A34B"/>
<path d="M4.58576 3.67156C3.41419 4.84313 3.41419 6.74263 4.58576 7.9142C4.8337 8.16214 5.11424 8.3576 5.41358 8.5006L6.18917 7.72501C5.86083 7.63732 5.55046 7.46468 5.29287 7.2071C4.51182 6.42605 4.51182 5.15972 5.29287 4.37867L7.1213 2.55024C7.90235 1.76919 9.16868 1.76919 9.94972 2.55024C10.7308 3.33129 10.7308 4.59762 9.94972 5.37867L9.15712 6.17128C9.26931 6.5914 9.31196 7.02623 9.28507 7.45754L10.6568 6.08577C11.8284 4.9142 11.8284 3.01471 10.6568 1.84313C9.48526 0.671561 7.58576 0.671561 6.41419 1.84313L4.58576 3.67156Z" fill="#16A34B"/>
</svg>
