<svg width="50" height="50" viewBox="0 0 50 50" fill="none" xmlns="http://www.w3.org/2000/svg">
<g clip-path="url(#clip0_2026_1896)">
<path d="M23.0026 47.995C24.1081 49.1436 25.8919 49.1436 26.9974 47.995C31.8285 42.9754 43.75 29.4997 43.75 18.75C43.75 13.7772 41.7746 9.00805 38.2583 5.49175C34.7419 1.97544 29.9728 0 25 0C20.0272 0 15.2581 1.97544 11.7417 5.49175C8.22544 9.00805 6.25 13.7772 6.25 18.75C6.25 29.4997 18.1715 42.9754 23.0026 47.995ZM25 28.125C22.5136 28.125 20.129 27.1373 18.3709 25.3791C16.6127 23.621 15.625 21.2364 15.625 18.75C15.625 16.2636 16.6127 13.879 18.3709 12.1209C20.129 10.3627 22.5136 9.375 25 9.375C27.4864 9.375 29.871 10.3627 31.6291 12.1209C33.3873 13.879 34.375 16.2636 34.375 18.75C34.375 21.2364 33.3873 23.621 31.6291 25.3791C29.871 27.1373 27.4864 28.125 25 28.125Z" fill="#16A34A"/>
</g>
<defs>
<clipPath id="clip0_2026_1896">
<rect width="50" height="50" fill="white"/>
</clipPath>
</defs>
</svg>
