<svg width="22" height="20" viewBox="0 0 22 20" fill="none" xmlns="http://www.w3.org/2000/svg">
<path fill-rule="evenodd" clip-rule="evenodd" d="M20.7401 12.74L20.8801 13.43C21.0326 14.0195 20.9082 14.6462 20.5423 15.1328C20.1764 15.6194 19.6087 15.9129 19.0001 15.93H15.1901C15.191 17.5486 13.9078 18.8761 12.2901 18.93H4.00011C3.08464 18.9148 2.22623 18.4824 1.66911 17.7558C1.112 17.0293 0.917187 16.088 1.14011 15.2L1.35011 14.2C1.59429 12.8224 2.78124 11.8117 4.18011 11.79H12.1201C12.4745 11.3665 12.9979 11.1212 13.5501 11.12H18.8401C19.7741 11.1498 20.563 11.8224 20.7401 12.74ZM18.9801 14.42C19.1021 14.4155 19.2157 14.3568 19.2901 14.26C19.4209 14.128 19.4868 13.9451 19.4701 13.76L19.3301 13.07C19.303 12.8465 19.1242 12.6718 18.9001 12.65H13.6101C13.495 12.6508 13.3872 12.7065 13.3201 12.8C13.0333 13.1303 12.6175 13.32 12.1801 13.32H4.2401C3.55552 13.3367 2.98189 13.8428 2.8801 14.52L2.6701 15.52C2.56754 16.0125 2.68837 16.5252 3.0001 16.92C3.2436 17.2271 3.60854 17.4132 4.0001 17.43H12.2601C13.0649 17.3766 13.6834 16.6963 13.6601 15.89C13.6764 15.0733 14.3433 14.4198 15.1601 14.42H18.9801Z" fill="#16A34A"/>
<path fill-rule="evenodd" clip-rule="evenodd" d="M12.1001 6.00001C12.1001 8.20915 10.3092 10 8.1001 10C5.89096 10 4.1001 8.20915 4.1001 6.00001V4.43001C4.1001 2.57433 5.60443 1.07001 7.4601 1.07001H8.7701C10.6141 1.08647 12.1002 2.58598 12.1001 4.43001V6.00001ZM7.4601 2.57001C6.43285 2.57001 5.6001 3.40276 5.6001 4.43001L5.6301 6.00001C5.78969 7.25918 6.86086 8.20315 8.1301 8.20315C9.39935 8.20315 10.4705 7.25918 10.6301 6.00001V4.43001C10.6301 3.40276 9.79735 2.57001 8.7701 2.57001H7.4601Z" fill="#16A34A"/>
<path fill-rule="evenodd" clip-rule="evenodd" d="M19.6801 6.25001C19.6801 7.90686 18.337 9.25001 16.6801 9.25001C15.0233 9.25001 13.6801 7.90686 13.6801 6.25001V5.10001C13.6799 3.72372 14.784 2.60185 16.1601 2.58001H17.1601C18.5519 2.58001 19.6801 3.70825 19.6801 5.10001V6.25001ZM16.1801 4.10001C15.6278 4.10001 15.1801 4.54772 15.1801 5.10001V6.25001C15.1801 7.07843 15.8517 7.75001 16.6801 7.75001C17.5085 7.75001 18.1801 7.07843 18.1801 6.25001V5.10001C18.1801 4.54772 17.7324 4.10001 17.1801 4.10001H16.1801Z" fill="#16A34A"/>
<path fill-rule="evenodd" clip-rule="evenodd" d="M20.7401 12.74L20.8801 13.43C21.0326 14.0195 20.9082 14.6462 20.5423 15.1328C20.1764 15.6194 19.6087 15.9129 19.0001 15.93H15.1901C15.191 17.5486 13.9078 18.8761 12.2901 18.93H4.00011C3.08464 18.9148 2.22623 18.4824 1.66911 17.7558C1.112 17.0293 0.917187 16.088 1.14011 15.2L1.35011 14.2C1.59429 12.8224 2.78124 11.8117 4.18011 11.79H12.1201C12.4745 11.3665 12.9979 11.1212 13.5501 11.12H18.8401C19.7741 11.1498 20.563 11.8224 20.7401 12.74ZM18.9801 14.42C19.1021 14.4155 19.2157 14.3568 19.2901 14.26C19.4209 14.128 19.4868 13.9451 19.4701 13.76L19.3301 13.07C19.303 12.8465 19.1242 12.6718 18.9001 12.65H13.6101C13.495 12.6508 13.3872 12.7065 13.3201 12.8C13.0333 13.1303 12.6175 13.32 12.1801 13.32H4.2401C3.55552 13.3367 2.98189 13.8428 2.8801 14.52L2.6701 15.52C2.56754 16.0125 2.68837 16.5252 3.0001 16.92C3.2436 17.2271 3.60854 17.4132 4.0001 17.43H12.2601C13.0649 17.3766 13.6834 16.6963 13.6601 15.89C13.6764 15.0733 14.3433 14.4198 15.1601 14.42H18.9801Z" stroke="#16A34A"/>
<path fill-rule="evenodd" clip-rule="evenodd" d="M12.1001 6.00001C12.1001 8.20915 10.3092 10 8.1001 10C5.89096 10 4.1001 8.20915 4.1001 6.00001V4.43001C4.1001 2.57433 5.60443 1.07001 7.4601 1.07001H8.7701C10.6141 1.08647 12.1002 2.58598 12.1001 4.43001V6.00001ZM7.4601 2.57001C6.43285 2.57001 5.6001 3.40276 5.6001 4.43001L5.6301 6.00001C5.78969 7.25918 6.86086 8.20315 8.1301 8.20315C9.39935 8.20315 10.4705 7.25918 10.6301 6.00001V4.43001C10.6301 3.40276 9.79735 2.57001 8.7701 2.57001H7.4601Z" stroke="#16A34A"/>
<path fill-rule="evenodd" clip-rule="evenodd" d="M19.6801 6.25001C19.6801 7.90686 18.337 9.25001 16.6801 9.25001C15.0233 9.25001 13.6801 7.90686 13.6801 6.25001V5.10001C13.6799 3.72372 14.784 2.60185 16.1601 2.58001H17.1601C18.5519 2.58001 19.6801 3.70825 19.6801 5.10001V6.25001ZM16.1801 4.10001C15.6278 4.10001 15.1801 4.54772 15.1801 5.10001V6.25001C15.1801 7.07843 15.8517 7.75001 16.6801 7.75001C17.5085 7.75001 18.1801 7.07843 18.1801 6.25001V5.10001C18.1801 4.54772 17.7324 4.10001 17.1801 4.10001H16.1801Z" stroke="#16A34A"/>
</svg>
