<svg width="18" height="22" viewBox="0 0 18 22" fill="none" xmlns="http://www.w3.org/2000/svg">
<path fill-rule="evenodd" clip-rule="evenodd" d="M16.5801 15.71L16.8201 16.85C17.0475 17.8356 16.823 18.8713 16.2077 19.6742C15.5925 20.4771 14.6509 20.9633 13.6401 21H4.36009C3.34927 20.9633 2.40766 20.4771 1.79244 19.6742C1.17722 18.8713 0.952661 17.8356 1.18009 16.85L1.42009 15.71C1.69613 14.1668 3.02272 13.0327 4.59009 13H13.4101C14.9775 13.0327 16.3041 14.1668 16.5801 15.71ZM13.6401 19.49C14.1479 19.4841 14.6258 19.2489 14.9401 18.85V18.86C15.3258 18.3762 15.4761 17.7458 15.3501 17.14L15.1101 16C14.9769 15.1552 14.2647 14.5226 13.4101 14.49H4.5901C3.73546 14.5226 3.02326 15.1552 2.8901 16L2.6501 17.14C2.52725 17.7426 2.67736 18.3687 3.0601 18.85C3.37443 19.2489 3.85231 19.4841 4.3601 19.49H13.6401Z" fill="#16A34A"/>
<path fill-rule="evenodd" clip-rule="evenodd" d="M9.50008 11H8.50008C6.29094 11 4.50008 9.20915 4.50008 7.00001V4.36001C4.49741 3.46807 4.85056 2.61189 5.48126 1.98119C6.11196 1.35049 6.96814 0.997348 7.86008 1.00001H10.1401C11.032 0.997348 11.8882 1.35049 12.5189 1.98119C13.1496 2.61189 13.5027 3.46807 13.5001 4.36001V7.00001C13.5001 9.20915 11.7092 11 9.50008 11ZM7.86008 2.50002C6.83283 2.50002 6.00008 3.33277 6.00008 4.36001V7.00001C6.00008 8.38073 7.11937 9.50001 8.50008 9.50001H9.50008C10.8808 9.50001 12.0001 8.38073 12.0001 7.00001V4.36001C12.0001 3.86671 11.8041 3.39361 11.4553 3.0448C11.1065 2.69598 10.6334 2.50002 10.1401 2.50002H7.86008Z" fill="#16A34A"/>
<path fill-rule="evenodd" clip-rule="evenodd" d="M16.5801 15.71L16.8201 16.85C17.0475 17.8356 16.823 18.8713 16.2077 19.6742C15.5925 20.4771 14.6509 20.9633 13.6401 21H4.36009C3.34927 20.9633 2.40766 20.4771 1.79244 19.6742C1.17722 18.8713 0.952661 17.8356 1.18009 16.85L1.42009 15.71C1.69613 14.1668 3.02272 13.0327 4.59009 13H13.4101C14.9775 13.0327 16.3041 14.1668 16.5801 15.71ZM13.6401 19.49C14.1479 19.4841 14.6258 19.2489 14.9401 18.85V18.86C15.3258 18.3762 15.4761 17.7458 15.3501 17.14L15.1101 16C14.9769 15.1552 14.2647 14.5226 13.4101 14.49H4.5901C3.73546 14.5226 3.02326 15.1552 2.8901 16L2.6501 17.14C2.52725 17.7426 2.67736 18.3687 3.0601 18.85C3.37443 19.2489 3.85231 19.4841 4.3601 19.49H13.6401Z" stroke="#16A34A" stroke-width="2"/>
<path fill-rule="evenodd" clip-rule="evenodd" d="M9.50008 11H8.50008C6.29094 11 4.50008 9.20915 4.50008 7.00001V4.36001C4.49741 3.46807 4.85056 2.61189 5.48126 1.98119C6.11196 1.35049 6.96814 0.997348 7.86008 1.00001H10.1401C11.032 0.997348 11.8882 1.35049 12.5189 1.98119C13.1496 2.61189 13.5027 3.46807 13.5001 4.36001V7.00001C13.5001 9.20915 11.7092 11 9.50008 11ZM7.86008 2.50002C6.83283 2.50002 6.00008 3.33277 6.00008 4.36001V7.00001C6.00008 8.38073 7.11937 9.50001 8.50008 9.50001H9.50008C10.8808 9.50001 12.0001 8.38073 12.0001 7.00001V4.36001C12.0001 3.86671 11.8041 3.39361 11.4553 3.0448C11.1065 2.69598 10.6334 2.50002 10.1401 2.50002H7.86008Z" stroke="#16A34A" stroke-width="2"/>
</svg>
