<svg width="3436" height="773" viewBox="0 0 3436 773" fill="none" xmlns="http://www.w3.org/2000/svg">
<path fill-rule="evenodd" clip-rule="evenodd" d="M3497.73 -170.935L3355.18 -182.452C3213.84 -194.117 2929.86 -218.139 2661.87 -111.833C2393.88 -5.52744 2141.79 230.265 1863.17 249.966C1584.55 269.666 1278.09 72.5835 999.467 92.2843C720.846 111.985 468.758 347.777 206.14 497.806C-56.5819 646.993 -329.937 709.576 -465.907 741.634L-603.189 773L-688.362 79.3208L-549.325 62.2492C-411.497 45.326 -134.631 11.3312 142.234 -22.6636C419.1 -56.6584 695.965 -90.6532 972.831 -124.648C1249.7 -158.643 1527.77 -192.786 1804.64 -226.781C2081.5 -260.776 2358.37 -294.771 2635.23 -328.765C2912.1 -362.76 3188.96 -396.755 3326.79 -413.678L3465.83 -430.75L3497.73 -170.935Z" fill="#16A34A"/>
</svg>
