<svg width="3436" height="608" viewBox="0 0 3436 608" fill="none" xmlns="http://www.w3.org/2000/svg">
<path fill-rule="evenodd" clip-rule="evenodd" d="M3535.97 24.6059L3394.97 0.709533C3255.19 -23.2293 2974.37 -71.9111 2698.14 10.6333C2421.91 93.1778 2150.23 306.102 1870.95 301.444C1591.68 296.787 1303.55 73.7435 1024.28 69.086C744.998 64.4285 473.319 277.353 198.624 403.921C-76.1002 529.643 -353.87 568.164 -492.116 588.249L-631.61 607.53L-656.001 -90.9321L-516.004 -95.8209C-377.226 -100.667 -98.4511 -110.402 180.324 -120.137C459.098 -129.872 737.873 -139.607 1016.65 -149.342C1295.42 -159.077 1575.41 -168.855 1854.19 -178.59C2132.96 -188.325 2411.74 -198.06 2690.51 -207.795C2969.29 -217.53 3248.06 -227.265 3386.84 -232.111L3526.84 -237L3535.97 24.6059Z" fill="#16A34A"/>
</svg>
