<svg width="3436" height="909" viewBox="0 0 3436 909" fill="none" xmlns="http://www.w3.org/2000/svg">
<path fill-rule="evenodd" clip-rule="evenodd" d="M4317.26 -219.929L4146.8 -233.7C3977.79 -247.649 3638.21 -276.373 3317.76 -149.256C2997.3 -22.1385 2695.86 259.816 2362.7 283.373C2029.53 306.931 1663.07 71.2645 1329.9 94.8222C996.733 118.38 695.292 400.334 381.26 579.734C67.1047 758.129 -259.766 832.964 -422.356 871.298L-586.514 908.804L-688.362 79.3209L-522.105 58.907C-357.293 38.6707 -26.2248 -1.97935 304.844 -42.6294C635.912 -83.2795 966.981 -123.93 1298.05 -164.58C1629.12 -205.23 1961.63 -246.057 2292.7 -286.708C2623.77 -327.358 2954.84 -368.008 3285.91 -408.658C3616.97 -449.308 3948.04 -489.958 4112.85 -510.194L4279.11 -530.608L4317.26 -219.929Z" fill="#16A34A"/>
</svg>
