<svg width="3436" height="786" viewBox="0 0 3436 786" fill="none" xmlns="http://www.w3.org/2000/svg">
<path fill-rule="evenodd" clip-rule="evenodd" d="M3467.73 -157.935L3325.18 -169.452C3183.84 -181.117 2899.86 -205.139 2631.87 -98.833C2363.88 7.47256 2111.79 243.265 1833.17 262.966C1554.55 282.666 1248.09 85.5835 969.467 105.284C690.846 124.985 438.758 360.777 176.14 510.806C-86.5819 659.993 -359.937 722.576 -495.907 754.634L-633.189 786L-718.362 92.3208L-579.325 75.2492C-441.497 58.326 -164.631 24.3312 112.234 -9.6636C389.1 -43.6584 665.965 -77.6532 942.831 -111.648C1219.7 -145.643 1497.77 -179.786 1774.64 -213.781C2051.5 -247.776 2328.37 -281.771 2605.23 -315.765C2882.1 -349.76 3158.96 -383.755 3296.79 -400.678L3435.83 -417.75L3467.73 -157.935Z" fill="#16A34A"/>
</svg>
