<svg width="3436" height="783" viewBox="0 0 3436 783" fill="none" xmlns="http://www.w3.org/2000/svg">
<path fill-rule="evenodd" clip-rule="evenodd" d="M-31.7281 943.935L110.819 955.451C252.158 967.116 536.147 991.138 804.133 884.833C1072.12 778.527 1324.21 542.735 1602.83 523.034C1881.45 503.333 2187.91 700.416 2466.54 680.715C2745.16 661.015 2997.24 425.222 3259.86 275.194C3522.58 126.006 3795.94 63.4237 3931.91 31.3657L4069.19 7.48259e-05L4154.36 693.679L4015.33 710.75C3877.5 727.674 3600.63 761.668 3323.77 795.663C3046.9 829.658 2770.04 863.653 2493.17 897.648C2216.31 931.642 1938.23 965.786 1661.37 999.781C1384.5 1033.78 1107.63 1067.77 830.769 1101.76C553.904 1135.76 277.038 1169.75 139.21 1186.68L0.173043 1203.75L-31.7281 943.935Z" fill="#16A34A"/>
</svg>
