<svg width="3436" height="909" viewBox="0 0 3436 909" fill="none" xmlns="http://www.w3.org/2000/svg">
<path fill-rule="evenodd" clip-rule="evenodd" d="M-881.253 1128.93L-710.799 1142.7C-541.79 1156.65 -202.203 1185.37 118.248 1058.26C438.7 931.138 740.14 649.184 1073.31 625.626C1406.47 602.068 1772.94 837.735 2106.11 814.177C2439.27 790.62 2740.71 508.665 3054.74 329.265C3368.9 150.871 3695.77 76.036 3858.36 37.7019L4022.52 0.195695L4124.37 829.679L3958.11 850.092C3793.3 870.329 3462.23 910.979 3131.16 951.629C2800.09 992.279 2469.02 1032.93 2137.96 1073.58C1806.89 1114.23 1474.37 1155.06 1143.3 1195.71C812.236 1236.36 481.168 1277.01 150.099 1317.66C-180.969 1358.31 -512.038 1398.96 -676.849 1419.19L-843.106 1439.61L-881.253 1128.93Z" fill="#16A34A"/>
</svg>
