<svg width="9" height="9" viewBox="0 0 9 9" fill="none" xmlns="http://www.w3.org/2000/svg">
<path d="M7.68514 1.3084C7.27067 0.891968 6.77709 0.56182 6.23315 0.337192C5.68922 0.112564 5.10582 -0.0020499 4.51695 2.77483e-05C2.04941 2.77483e-05 0.0384229 2.0014 0.0361627 4.45839C0.0361627 5.24532 0.242968 6.01088 0.633413 6.68869L0 9L2.37544 8.38013C3.03259 8.73614 3.76879 8.92275 4.51695 8.92294H4.51921C6.98732 8.92294 8.99774 6.92157 9 4.46233C9.00056 3.87623 8.88463 3.29581 8.65886 2.75451C8.4331 2.21322 8.10198 1.72174 7.68458 1.3084H7.68514ZM4.51695 8.16807C3.84963 8.16829 3.19458 7.98952 2.62067 7.65057L2.48506 7.56957L1.07584 7.93744L1.45216 6.56888L1.36401 6.4277C0.990976 5.83726 0.793685 5.15365 0.795015 4.45614C0.795015 2.41652 2.46585 0.75265 4.51921 0.75265C5.00839 0.751777 5.49291 0.847304 5.94482 1.03373C6.39674 1.22015 6.80712 1.49378 7.15231 1.83883C7.4987 2.18255 7.7733 2.59113 7.96028 3.04102C8.14725 3.49091 8.2429 3.9732 8.24171 4.46008C8.23945 6.50701 6.56862 8.16807 4.51695 8.16807V8.16807ZM6.55958 5.3927C6.44827 5.33701 5.89848 5.06757 5.79508 5.02932C5.69224 4.99276 5.61709 4.97364 5.54363 5.08501C5.46848 5.19582 5.25377 5.44839 5.18935 5.52095C5.12494 5.59576 5.05826 5.6042 4.94638 5.54907C4.83507 5.49282 4.47401 5.37582 4.04683 4.99501C3.71346 4.6997 3.49027 4.33408 3.42359 4.22326C3.35918 4.11189 3.41738 4.05227 3.47332 3.99658C3.52248 3.94708 3.58463 3.86608 3.64057 3.80195C3.69707 3.73783 3.71572 3.69058 3.75245 3.61633C3.78918 3.54095 3.77166 3.47683 3.74397 3.42114C3.71572 3.36545 3.49253 2.81589 3.39817 2.59427C3.30776 2.37546 3.21566 2.40583 3.14672 2.40302C3.08231 2.39908 3.00716 2.39908 2.93201 2.39908C2.87525 2.40049 2.81941 2.41355 2.76797 2.43746C2.71653 2.46137 2.67061 2.49561 2.6331 2.53802C2.53026 2.64939 2.24265 2.91883 2.24265 3.46839C2.24265 4.01795 2.64383 4.54614 2.70034 4.62095C2.75571 4.69576 3.48801 5.8202 4.61188 6.30395C4.87745 6.41926 5.08651 6.48732 5.24981 6.53907C5.51821 6.62457 5.76061 6.61163 5.95385 6.58407C6.16857 6.55145 6.61552 6.31407 6.70988 6.05363C6.80255 5.79264 6.80255 5.56989 6.7743 5.5232C6.74661 5.47595 6.67146 5.44839 6.55958 5.3927V5.3927Z" fill="#FFF"/>
</svg>
