<svg width="32" height="32" viewBox="0 0 32 32" fill="none" xmlns="http://www.w3.org/2000/svg">
<g clip-path="url(#clip0_898_192)">
<path d="M15.9914 32C24.7606 32 31.8693 24.8366 31.8693 16C31.8693 7.16344 24.7606 0 15.9914 0C7.22231 0 0.113525 7.16344 0.113525 16C0.113525 24.8366 7.22231 32 15.9914 32Z" fill="#D97830"/>
<path d="M7.27026 16L11.3757 7.07031H11.7939L15.8993 16H15.4305L11.4898 7.36372H11.6798L7.7391 16H7.27026ZM8.68943 13.3849L8.85416 13.015H14.2774L14.4421 13.3849H8.68943Z" fill="white"/>
<path d="M19.3244 24.6485L15.3457 15.7188H15.8272L19.6666 24.3551H19.4258L23.2651 15.7188H23.7213L19.7426 24.6485H19.3244Z" fill="white"/>
<path d="M29.9382 16.11C29.9382 23.8121 23.7423 30.056 16.0988 30.056C8.45544 30.056 2.25928 23.8121 2.25928 16.11C2.25928 8.40787 8.45544 2.16406 16.0988 2.16406C23.7423 2.16406 29.9382 8.40787 29.9382 16.11ZM2.87671 16.11C2.87671 23.4685 8.79645 29.4337 16.0988 29.4337C23.4012 29.4337 29.321 23.4685 29.321 16.11C29.321 8.7515 23.4012 2.78625 16.0988 2.78625C8.79645 2.78625 2.87671 8.7515 2.87671 16.11Z" fill="white"/>
</g>
<defs>
<clipPath id="clip0_898_192">
<rect width="32" height="32" fill="white"/>
</clipPath>
</defs>
</svg>
